<svg version="1.1" id="Layer_1" xmlns="http://www.w3.org/2000/svg" xmlns:xlink="http://www.w3.org/1999/xlink" x="0px" y="0px"
	 width="100%" viewBox="0 0 1024 1024" enable-background="new 0 0 1024 1024" xml:space="preserve">
<path fill="#000000" opacity="1.000000" stroke="none" 
	d="
M475.000000,1025.000000 
	C316.666656,1025.000000 158.833328,1025.000000 1.000000,1025.000000 
	C1.000000,683.666687 1.000000,342.333344 1.000000,1.000000 
	C342.333344,1.000000 683.666687,1.000000 1025.000000,1.000000 
	C1025.000000,342.333344 1025.000000,683.666687 1025.000000,1025.000000 
	C841.833313,1025.000000 658.666687,1025.000000 475.000000,1025.000000 
M319.062134,736.506348 
	C319.418854,736.667969 319.775574,736.829590 319.998169,737.002319 
	C319.998169,737.002319 319.986511,736.868286 320.172516,737.579224 
	C324.702728,741.824768 330.279480,742.332336 335.991577,742.073059 
	C335.991577,742.073059 335.948273,741.984314 336.446777,742.699585 
	C337.767670,742.798401 339.088531,742.983276 340.409454,742.983521 
	C396.724213,742.995605 453.039062,743.027954 509.353699,742.944641 
	C516.761292,742.933655 524.191040,742.569153 531.565002,741.880737 
	C535.120667,741.548706 538.570374,740.082336 542.938049,738.985535 
	C545.387024,738.740906 547.938110,738.854126 550.267456,738.190002 
	C560.546509,735.259094 570.935364,732.577026 580.951233,728.897644 
	C590.962708,725.219971 600.969543,721.174500 610.290100,716.040588 
	C634.080933,702.936035 655.520935,686.758484 672.476440,665.172363 
	C679.591431,656.114197 686.987488,647.276794 694.102722,638.218811 
	C696.048035,635.742371 697.438904,632.830383 699.757019,629.864380 
	C700.836609,627.535828 701.916199,625.207336 703.013550,623.011780 
	C703.013550,623.011780 702.880676,623.030396 703.525208,622.811340 
	C703.678955,622.164795 703.832703,621.518188 703.994873,621.003601 
	C703.994873,621.003601 703.862854,621.011414 704.535400,620.846436 
	C704.694092,620.193970 704.852783,619.541565 705.024658,619.020691 
	C705.024658,619.020691 704.893188,619.035522 705.555481,618.850159 
	C705.707764,618.198608 705.860107,617.547058 706.011841,617.016418 
	C706.011841,617.016418 705.890930,617.016846 706.606140,616.931824 
	C706.735352,616.252747 706.864502,615.573730 706.997559,615.005310 
	C706.997559,615.005310 706.886902,615.009705 707.620361,614.915649 
	C708.066956,613.566223 708.513550,612.216797 708.968933,610.988770 
	C708.968933,610.988770 708.847473,610.996094 709.578125,610.837341 
	C710.389465,608.520447 711.200867,606.203552 712.018982,604.018677 
	C712.018982,604.018677 711.887085,604.026611 712.536926,603.875732 
	C713.115479,602.212891 713.693970,600.550110 714.807251,598.010376 
	C714.913025,597.333984 715.018799,596.657532 715.791992,595.716980 
	C716.180908,594.433411 716.569824,593.149780 716.980896,591.990356 
	C716.980896,591.990356 716.856567,592.011536 717.579834,591.769653 
	C720.378235,583.416321 723.968323,575.229675 725.770996,566.666687 
	C727.935425,556.384949 728.577148,545.782654 729.956238,535.436279 
	C729.956238,535.436279 729.837646,535.512207 730.510010,534.913696 
	C730.999023,522.931458 731.696533,510.952087 731.859924,498.965424 
	C731.914429,494.967682 730.601624,490.951294 730.056213,486.961914 
	C730.056213,486.961914 730.040894,487.104584 729.940369,486.181274 
	C729.294983,479.092834 728.958618,471.956573 727.871094,464.936615 
	C727.344604,461.538239 725.408752,458.358185 723.889160,454.466522 
	C722.967957,450.852753 722.466370,447.064972 721.052673,443.655396 
	C715.039917,429.153137 709.619873,414.311279 702.361938,400.441956 
	C692.488892,381.575500 678.838562,365.415009 663.347290,350.641632 
	C649.180725,337.131592 633.396851,325.996063 616.678833,316.189606 
	C607.723816,310.936768 597.941345,306.944244 588.220337,303.190826 
	C578.959717,299.615234 569.293701,297.089752 560.002014,293.265625 
	C554.036072,290.806641 547.908386,289.332458 540.709106,290.087585 
	C540.485596,290.024689 540.262146,289.961823 539.723206,289.171814 
	C537.483337,288.456055 535.284424,287.334503 532.995667,287.103729 
	C527.098572,286.509094 521.164978,286.067963 515.240295,285.990570 
	C482.511932,285.563019 449.782135,285.234497 417.052002,284.966766 
	C414.137695,284.942932 411.211853,285.927704 408.301788,285.874481 
	C400.047455,285.723511 391.799957,285.045563 383.547180,284.994049 
	C365.066467,284.878723 346.578979,284.803009 328.107422,285.253265 
	C324.847473,285.332703 320.497925,284.232025 317.994293,287.998230 
	C317.994293,287.998230 318.109802,287.996613 317.455414,288.081238 
	C317.385468,288.479034 317.315521,288.876831 316.811371,289.801910 
	C314.848785,291.870056 312.886169,293.938202 310.190857,296.253876 
	C309.474945,299.561859 308.172607,302.863983 308.139557,306.178833 
	C307.943665,325.820557 307.909393,345.466980 308.169708,365.107178 
	C308.214050,368.453552 309.943939,371.777557 311.247498,375.723999 
	C312.698151,379.407623 314.902100,382.298706 319.297058,383.704956 
	C319.898254,383.813080 320.499451,383.921173 320.964569,384.036530 
	C320.964569,384.036530 320.954987,383.900574 321.234039,384.755615 
	C322.055328,384.826172 322.876617,384.958496 323.697906,384.958466 
	C365.769623,384.957336 407.841705,384.839050 449.912964,384.973175 
	C475.449341,385.054565 500.984497,385.524231 527.389587,385.881989 
	C527.964722,385.957977 528.539917,386.033966 529.470337,386.721924 
	C530.173645,386.793488 530.876892,386.865051 531.487549,386.948425 
	C531.487549,386.948425 531.477356,386.855560 531.978760,387.530884 
	C536.023315,388.360016 540.067932,389.189148 543.979065,390.033081 
	C543.979065,390.033081 543.962402,389.899811 544.156616,390.598938 
	C545.331909,390.689484 546.507202,390.780029 548.136719,391.529297 
	C554.689575,394.303162 561.439880,396.690247 567.761108,399.917816 
	C594.996643,413.824158 613.196777,435.802002 624.070435,464.879395 
	C625.091431,468.252136 626.112427,471.624908 627.024109,474.999939 
	C627.024109,474.999939 627.022583,474.890594 627.027588,475.726685 
	C627.994629,478.853729 628.961731,481.980774 630.075806,485.772461 
	C631.057190,494.005127 632.912231,502.249878 632.798462,510.467316 
	C632.656860,520.685791 630.888489,530.881714 629.197144,541.451172 
	C627.537720,547.946533 625.878235,554.441833 623.996887,561.548584 
	C623.657776,561.912231 623.147644,562.218689 623.004211,562.647705 
	C618.133240,577.221802 610.282043,590.077026 600.611023,601.924011 
	C592.133423,612.309082 581.847717,620.897400 570.651733,627.777283 
	C559.218201,634.803162 547.253723,641.524719 533.403320,643.471680 
	C525.026306,644.649170 516.755981,646.585999 507.446716,648.060120 
	C502.800537,648.025085 498.154205,647.949219 493.508179,647.961731 
	C466.964050,648.033386 440.420013,648.126038 413.253632,647.777771 
	C414.273499,645.194397 415.000549,642.438721 416.391632,640.073669 
	C417.927460,637.462585 420.072205,635.209595 422.536133,632.919434 
	C422.704010,632.584106 422.871887,632.248779 423.036926,632.040771 
	C423.036926,632.040771 422.909546,632.040649 423.664459,631.881165 
	C425.710938,626.339966 429.529602,620.916443 424.615479,614.275208 
	C422.335938,611.559265 420.056396,608.843384 417.993469,605.315979 
	C416.124725,604.563538 414.255981,603.811096 412.496246,603.018127 
	C412.496246,603.018127 412.535950,603.127441 411.956604,602.389771 
	C411.323456,602.246155 410.690369,601.977417 410.057098,601.976929 
	C382.364532,601.956543 354.671783,601.922607 326.979828,602.052246 
	C325.304871,602.060120 323.636139,603.393555 321.980804,603.979919 
	C321.980804,603.979919 322.111267,603.994873 321.401855,603.994690 
	C320.596222,604.696960 319.790619,605.399170 318.981537,605.985596 
	C318.981537,605.985596 319.097290,605.981140 318.485596,606.059326 
	C318.394989,606.414795 318.304352,606.770203 317.850861,607.733582 
	C315.538879,611.156067 313.226898,614.578552 310.171906,618.313477 
	C309.777069,618.986816 309.067657,619.645264 309.035004,620.335754 
	C308.607788,629.362122 308.035736,638.391724 307.981964,647.423279 
	C307.915375,658.611816 308.425659,669.802734 308.449890,680.993164 
	C308.472473,691.420410 307.906311,701.855591 308.174805,712.272339 
	C308.277466,716.253540 309.977722,720.193604 311.270020,724.699036 
	C313.497742,728.148804 315.725433,731.598511 318.129517,735.579285 
	C318.456757,735.726990 318.783997,735.874695 318.979126,736.019287 
	C318.979126,736.019287 318.980896,735.887146 319.062134,736.506348 
M333.031097,477.580170 
	C333.666351,477.712677 334.301544,477.961029 334.936829,477.961243 
	C399.109711,477.980377 463.282623,477.985657 527.455505,477.944885 
	C528.645386,477.944122 529.834961,477.382904 531.797363,476.976562 
	C532.696960,476.628815 533.568359,476.128387 534.500366,475.956573 
	C545.646729,473.901642 553.994019,461.893127 552.607605,451.782928 
	C551.903931,446.651825 547.509949,442.026825 544.898376,436.457306 
	C540.931580,433.011871 536.765747,429.952911 531.181885,429.952393 
	C465.038940,429.946228 398.895874,429.913147 332.753326,430.077179 
	C329.840240,430.084381 326.931671,431.918732 323.364075,433.168488 
	C307.322540,439.741699 307.657562,462.660248 318.716400,471.429962 
	C322.954620,474.790833 327.626953,475.711151 333.031097,477.580170 
z"/>
<path fill="#FE7E21" opacity="1.000000" stroke="none" 
	d="
M317.953125,735.048279 
	C315.725433,731.598511 313.497742,728.148804 311.184937,723.988831 
	C310.751709,720.819824 310.087189,718.358887 310.103333,715.902466 
	C310.318207,683.268250 310.628448,650.634766 310.914917,618.001038 
	C313.226898,614.578552 315.538879,611.156067 318.358826,607.340881 
	C318.943634,606.625854 319.020447,606.303467 319.097290,605.981140 
	C319.097290,605.981140 318.981537,605.985596 319.324158,606.195923 
	C320.481567,605.602478 321.296417,604.798706 322.111267,603.994873 
	C322.111267,603.994873 321.980804,603.979919 322.395691,604.136230 
	C325.231232,603.862793 327.651184,603.064087 330.072510,603.059937 
	C357.560211,603.012268 385.048096,603.086121 412.535950,603.127441 
	C412.535950,603.127441 412.496246,603.018127 412.571930,603.382446 
	C414.357361,604.540283 416.067108,605.333862 417.776825,606.127441 
	C420.056396,608.843384 422.335938,611.559265 424.410431,614.842163 
	C423.773438,620.953003 423.341492,626.496826 422.909546,632.040649 
	C422.909546,632.040649 423.036926,632.040771 422.751099,631.902832 
	C422.294067,632.110107 422.122864,632.455322 421.951660,632.800598 
	C420.072205,635.209595 417.927460,637.462585 416.391632,640.073669 
	C415.000549,642.438721 414.273499,645.194397 413.840759,648.331177 
	C415.252045,648.981445 416.076263,649.164307 416.900238,649.163025 
	C446.162445,649.117371 475.424683,649.064392 504.686707,648.960022 
	C505.937958,648.955566 507.187439,648.452454 508.437744,648.181641 
	C516.755981,646.585999 525.026306,644.649170 533.403320,643.471680 
	C547.253723,641.524719 559.218201,634.803162 570.651733,627.777283 
	C581.847717,620.897400 592.133423,612.309082 600.611023,601.924011 
	C610.282043,590.077026 618.133240,577.221802 623.004211,562.647705 
	C623.147644,562.218689 623.657776,561.912231 624.361755,561.002930 
	C626.425354,554.000671 628.124023,547.544006 629.822754,541.087402 
	C630.888489,530.881714 632.656860,520.685791 632.798462,510.467316 
	C632.912231,502.249878 631.057190,494.005127 630.069092,485.030579 
	C629.049133,481.155975 628.035889,478.023285 627.022583,474.890594 
	C627.022583,474.890594 627.024109,474.999939 627.313843,474.637024 
	C626.465332,470.869690 625.327087,467.465302 624.188904,464.060883 
	C613.196777,435.802002 594.996643,413.824158 567.761108,399.917816 
	C561.439880,396.690247 554.689575,394.303162 547.712341,390.916016 
	C546.179443,390.168427 545.070923,390.034119 543.962402,389.899841 
	C543.962402,389.899811 543.979065,390.033081 543.901855,389.663269 
	C539.708862,388.480835 535.593140,387.668182 531.477356,386.855560 
	C531.477356,386.855560 531.487549,386.948425 531.362061,386.627014 
	C530.529419,386.240387 529.822266,386.175171 529.115051,386.109985 
	C528.539917,386.033966 527.964722,385.957977 526.680786,385.597656 
	C519.033325,384.895081 512.095459,384.129639 505.155792,384.113098 
	C443.755707,383.966766 382.355286,383.953308 320.954987,383.900574 
	C320.954987,383.900574 320.964569,384.036530 321.008026,383.687531 
	C320.385071,383.273102 319.718628,383.207672 319.052216,383.142242 
	C314.902100,382.298706 312.698151,379.407623 311.148682,374.989502 
	C310.704346,372.137268 310.041809,370.016479 310.061829,367.902161 
	C310.288818,343.936310 310.620178,319.971466 310.923584,296.006348 
	C312.886169,293.938202 314.848785,291.870056 317.366516,289.415283 
	C318.051270,288.933899 318.291107,288.836853 318.289215,288.744781 
	C318.284088,288.494293 318.176697,288.245850 318.109802,287.996613 
	C318.109802,287.996613 317.994293,287.998230 318.385681,288.261902 
	C322.044312,288.071747 325.320648,287.165253 328.577423,287.230621 
	C399.058228,288.644653 469.615753,284.064697 540.038757,289.898926 
	C540.262146,289.961823 540.485596,290.024689 541.331787,290.384338 
	C547.904907,291.821594 553.855408,292.962097 559.805908,294.102570 
	C569.293701,297.089752 578.959717,299.615234 588.220337,303.190826 
	C597.941345,306.944244 607.723816,310.936768 616.678833,316.189606 
	C633.396851,325.996063 649.180725,337.131592 663.347290,350.641632 
	C678.838562,365.415009 692.488892,381.575500 702.361938,400.441956 
	C709.619873,414.311279 715.039917,429.153137 721.052673,443.655396 
	C722.466370,447.064972 722.967957,450.852753 723.946533,455.166412 
	C724.705261,459.085571 725.480286,462.290894 726.092590,465.527008 
	C727.451965,472.711334 728.729858,479.911102 730.040894,487.104584 
	C730.040894,487.104584 730.056213,486.961914 729.913696,487.418213 
	C729.793274,503.753754 729.815491,519.632996 729.837646,535.512207 
	C729.837646,535.512207 729.956238,535.436279 729.619507,535.665894 
	C727.379211,546.582520 725.770752,557.333313 723.476379,567.935730 
	C721.718750,576.058167 719.095032,583.993164 716.856567,592.011536 
	C716.856567,592.011536 716.980896,591.990356 716.600464,591.909485 
	C715.854858,593.212769 715.489685,594.596985 715.124512,595.981140 
	C715.018799,596.657532 714.913025,597.333984 714.267700,598.412598 
	C713.114441,600.552063 712.500732,602.289368 711.887085,604.026611 
	C711.887085,604.026611 712.018982,604.018677 711.655457,604.033813 
	C710.477112,606.364685 709.662292,608.680420 708.847473,610.996094 
	C708.847473,610.996094 708.968933,610.988770 708.581970,610.930298 
	C707.758972,612.251099 707.322937,613.630371 706.886902,615.009705 
	C706.886902,615.009705 706.997559,615.005310 706.619629,614.965088 
	C706.124756,615.622131 706.007874,616.319519 705.890930,617.016846 
	C705.890930,617.016846 706.011841,617.016418 705.640503,616.982605 
	C705.143860,617.644348 705.018555,618.339966 704.893188,619.035522 
	C704.893188,619.035522 705.024658,619.020691 704.643677,619.001160 
	C704.129456,619.658203 703.996155,620.334839 703.862793,621.011414 
	C703.862854,621.011414 703.994873,621.003601 703.621460,620.971924 
	C703.125549,621.637024 703.003113,622.333679 702.880676,623.030396 
	C702.880676,623.030396 703.013550,623.011780 702.644897,622.943237 
	C701.212219,625.289246 700.148254,627.703796 699.084229,630.118286 
	C697.438904,632.830383 696.048035,635.742371 694.102722,638.218811 
	C686.987488,647.276794 679.591431,656.114197 672.476440,665.172363 
	C655.520935,686.758484 634.080933,702.936035 610.290100,716.040588 
	C600.969543,721.174500 590.962708,725.219971 580.951233,728.897644 
	C570.935364,732.577026 560.546509,735.259094 550.267456,738.190002 
	C547.938110,738.854126 545.387024,738.740906 542.072693,738.992676 
	C523.635559,742.161377 505.886322,741.920105 488.133392,741.906860 
	C437.405060,741.869141 386.676666,741.950073 335.948273,741.984375 
	C335.948273,741.984314 335.991577,742.073059 335.705597,741.841064 
	C330.275269,740.028748 325.130890,738.448486 319.986511,736.868286 
	C319.986511,736.868286 319.998169,737.002319 320.161072,736.629272 
	C319.876251,736.133240 319.428589,736.010193 318.980896,735.887146 
	C318.980896,735.887146 318.979126,736.019287 319.080719,735.680176 
	C318.772583,735.243530 318.362854,735.145935 317.953125,735.048279 
z"/>
<path fill="#FE7E21" opacity="1.000000" stroke="none" 
	d="
M544.784241,437.173004 
	C547.509949,442.026825 551.903931,446.651825 552.607605,451.782928 
	C553.994019,461.893127 545.646729,473.901642 534.500366,475.956573 
	C533.568359,476.128387 532.696960,476.628815 530.960449,476.884827 
	C464.240662,476.801758 398.357727,476.810364 332.474792,476.818970 
	C327.626953,475.711151 322.954620,474.790833 318.716400,471.429962 
	C307.657562,462.660248 307.322540,439.741699 324.112915,433.133392 
	C327.780548,432.577423 330.698761,431.605804 333.618225,431.602051 
	C396.247955,431.521362 458.877838,431.538971 521.507690,431.569183 
	C528.865540,431.572723 536.546631,430.391083 542.407715,436.714203 
	C542.850037,437.191437 543.976013,437.034943 544.784241,437.173004 
z"/>
<path fill="#09DCCE" opacity="1.000000" stroke="none" 
	d="
M544.841309,436.815155 
	C543.976013,437.034943 542.850037,437.191437 542.407715,436.714203 
	C536.546631,430.391083 528.865540,431.572723 521.507690,431.569183 
	C458.877838,431.538971 396.247955,431.521362 333.618225,431.602051 
	C330.698761,431.605804 327.780548,432.577423 324.441406,433.000122 
	C326.931671,431.918732 329.840240,430.084381 332.753326,430.077179 
	C398.895874,429.913147 465.038940,429.946228 531.181885,429.952393 
	C536.765747,429.952911 540.931580,433.011871 544.841309,436.815155 
z"/>
<path fill="#09DCCE" opacity="1.000000" stroke="none" 
	d="
M539.880981,289.535370 
	C469.615753,284.064697 399.058228,288.644653 328.577423,287.230621 
	C325.320648,287.165253 322.044312,288.071747 318.386353,288.319702 
	C320.497925,284.232025 324.847473,285.332703 328.107422,285.253265 
	C346.578979,284.803009 365.066467,284.878723 383.547180,284.994049 
	C391.799957,285.045563 400.047455,285.723511 408.301788,285.874481 
	C411.211853,285.927704 414.137695,284.942932 417.052002,284.966766 
	C449.782135,285.234497 482.511932,285.563019 515.240295,285.990570 
	C521.164978,286.067963 527.098572,286.509094 532.995667,287.103729 
	C535.284424,287.334503 537.483337,288.456055 539.880981,289.535370 
z"/>
<path fill="#09DCCE" opacity="1.000000" stroke="none" 
	d="
M336.197510,742.341980 
	C386.676666,741.950073 437.405060,741.869141 488.133392,741.906860 
	C505.886322,741.920105 523.635559,742.161377 541.637695,739.064697 
	C538.570374,740.082336 535.120667,741.548706 531.565002,741.880737 
	C524.191040,742.569153 516.761292,742.933655 509.353699,742.944641 
	C453.039062,743.027954 396.724213,742.995605 340.409454,742.983521 
	C339.088531,742.983276 337.767670,742.798401 336.197510,742.341980 
z"/>
<path fill="#09DCCE" opacity="1.000000" stroke="none" 
	d="
M321.094513,384.328125 
	C382.355286,383.953308 443.755707,383.966766 505.155792,384.113098 
	C512.095459,384.129639 519.033325,384.895081 526.246094,385.566406 
	C500.984497,385.524231 475.449341,385.054565 449.912964,384.973175 
	C407.841705,384.839050 365.769623,384.957336 323.697906,384.958466 
	C322.876617,384.958496 322.055328,384.826172 321.094513,384.328125 
z"/>
<path fill="#09DCCE" opacity="1.000000" stroke="none" 
	d="
M332.752930,477.199585 
	C398.357727,476.810364 464.240662,476.801758 530.574097,476.938171 
	C529.834961,477.382904 528.645386,477.944122 527.455505,477.944885 
	C463.282623,477.985657 399.109711,477.980377 334.936829,477.961243 
	C334.301544,477.961029 333.666351,477.712677 332.752930,477.199585 
z"/>
<path fill="#09DCCE" opacity="1.000000" stroke="none" 
	d="
M310.543396,618.157227 
	C310.628448,650.634766 310.318207,683.268250 310.103333,715.902466 
	C310.087189,718.358887 310.751709,720.819824 311.024902,723.715515 
	C309.977722,720.193604 308.277466,716.253540 308.174805,712.272339 
	C307.906311,701.855591 308.472473,691.420410 308.449890,680.993164 
	C308.425659,669.802734 307.915375,658.611816 307.981964,647.423279 
	C308.035736,638.391724 308.607788,629.362122 309.035004,620.335754 
	C309.067657,619.645264 309.777069,618.986816 310.543396,618.157227 
z"/>
<path fill="#09DCCE" opacity="1.000000" stroke="none" 
	d="
M310.557251,296.130127 
	C310.620178,319.971466 310.288818,343.936310 310.061829,367.902161 
	C310.041809,370.016479 310.704346,372.137268 310.972473,374.683472 
	C309.943939,371.777557 308.214050,368.453552 308.169708,365.107178 
	C307.909393,345.466980 307.943665,325.820557 308.139557,306.178833 
	C308.172607,302.863983 309.474945,299.561859 310.557251,296.130127 
z"/>
<path fill="#09DCCE" opacity="1.000000" stroke="none" 
	d="
M507.942230,648.120850 
	C507.187439,648.452454 505.937958,648.955566 504.686707,648.960022 
	C475.424683,649.064392 446.162445,649.117371 416.900238,649.163025 
	C416.076263,649.164307 415.252045,648.981445 414.151917,648.548096 
	C440.420013,648.126038 466.964050,648.033386 493.508179,647.961731 
	C498.154205,647.949219 502.800537,648.025085 507.942230,648.120850 
z"/>
<path fill="#09DCCE" opacity="1.000000" stroke="none" 
	d="
M412.246277,602.758667 
	C385.048096,603.086121 357.560211,603.012268 330.072510,603.059937 
	C327.651184,603.064087 325.231232,603.862793 322.387573,604.201294 
	C323.636139,603.393555 325.304871,602.060120 326.979828,602.052246 
	C354.671783,601.922607 382.364532,601.956543 410.057098,601.976929 
	C410.690369,601.977417 411.323456,602.246155 412.246277,602.758667 
z"/>
<path fill="#09DCCE" opacity="1.000000" stroke="none" 
	d="
M717.218140,591.890625 
	C719.095032,583.993164 721.718750,576.058167 723.476379,567.935730 
	C725.770752,557.333313 727.379211,546.582520 729.580444,535.607361 
	C728.577148,545.782654 727.935425,556.384949 725.770996,566.666687 
	C723.968323,575.229675 720.378235,583.416321 717.218140,591.890625 
z"/>
<path fill="#09DCCE" opacity="1.000000" stroke="none" 
	d="
M730.173828,535.212952 
	C729.815491,519.632996 729.793274,503.753754 729.842529,487.408997 
	C730.601624,490.951294 731.914429,494.967682 731.859924,498.965424 
	C731.696533,510.952087 730.999023,522.931458 730.173828,535.212952 
z"/>
<path fill="#09DCCE" opacity="1.000000" stroke="none" 
	d="
M729.990601,486.642944 
	C728.729858,479.911102 727.451965,472.711334 726.092590,465.527008 
	C725.480286,462.290894 724.705261,459.085571 724.057495,455.472778 
	C725.408752,458.358185 727.344604,461.538239 727.871094,464.936615 
	C728.958618,471.956573 729.294983,479.092834 729.990601,486.642944 
z"/>
<path fill="#09DCCE" opacity="1.000000" stroke="none" 
	d="
M629.509888,541.269287 
	C628.124023,547.544006 626.425354,554.000671 624.472717,560.697266 
	C625.878235,554.441833 627.537720,547.946533 629.509888,541.269287 
z"/>
<path fill="#09DCCE" opacity="1.000000" stroke="none" 
	d="
M423.286987,631.960938 
	C423.341492,626.496826 423.773438,620.953003 424.497742,615.166992 
	C429.529602,620.916443 425.710938,626.339966 423.286987,631.960938 
z"/>
<path fill="#09DCCE" opacity="1.000000" stroke="none" 
	d="
M559.903931,293.684082 
	C553.855408,292.962097 547.904907,291.821594 541.674438,290.445801 
	C547.908386,289.332458 554.036072,290.806641 559.903931,293.684082 
z"/>
<path fill="#09DCCE" opacity="1.000000" stroke="none" 
	d="
M320.079529,737.223755 
	C325.130890,738.448486 330.275269,740.028748 335.750824,741.821228 
	C330.279480,742.332336 324.702728,741.824768 320.079529,737.223755 
z"/>
<path fill="#09DCCE" opacity="1.000000" stroke="none" 
	d="
M531.728027,387.193237 
	C535.593140,387.668182 539.708862,388.480835 543.968567,389.655884 
	C540.067932,389.189148 536.023315,388.360016 531.728027,387.193237 
z"/>
<path fill="#09DCCE" opacity="1.000000" stroke="none" 
	d="
M627.025146,475.308655 
	C628.035889,478.023285 629.049133,481.155975 629.995605,484.698242 
	C628.961731,481.980774 627.994629,478.853729 627.025146,475.308655 
z"/>
<path fill="#09DCCE" opacity="1.000000" stroke="none" 
	d="
M624.129639,464.470154 
	C625.327087,467.465302 626.465332,470.869690 627.368530,474.635864 
	C626.112427,471.624908 625.091431,468.252136 624.129639,464.470154 
z"/>
<path fill="#09DCCE" opacity="1.000000" stroke="none" 
	d="
M699.420654,629.991333 
	C700.148254,627.703796 701.212219,625.289246 702.635986,622.876770 
	C701.916199,625.207336 700.836609,627.535828 699.420654,629.991333 
z"/>
<path fill="#09DCCE" opacity="1.000000" stroke="none" 
	d="
M709.212769,610.916748 
	C709.662292,608.680420 710.477112,606.364685 711.652100,603.967834 
	C711.200867,606.203552 710.389465,608.520447 709.212769,610.916748 
z"/>
<path fill="#09DCCE" opacity="1.000000" stroke="none" 
	d="
M712.212036,603.951172 
	C712.500732,602.289368 713.114441,600.552063 714.000366,598.851074 
	C713.693970,600.550110 713.115479,602.212891 712.212036,603.951172 
z"/>
<path fill="#09DCCE" opacity="1.000000" stroke="none" 
	d="
M417.885132,605.721680 
	C416.067108,605.333862 414.357361,604.540283 412.517456,603.402710 
	C414.255981,603.811096 416.124725,604.563538 417.885132,605.721680 
z"/>
<path fill="#09DCCE" opacity="1.000000" stroke="none" 
	d="
M715.458252,595.849060 
	C715.489685,594.596985 715.854858,593.212769 716.589355,591.847412 
	C716.569824,593.149780 716.180908,594.433411 715.458252,595.849060 
z"/>
<path fill="#09DCCE" opacity="1.000000" stroke="none" 
	d="
M707.253662,614.962646 
	C707.322937,613.630371 707.758972,612.251099 708.577576,610.869568 
	C708.513550,612.216797 708.066956,613.566223 707.253662,614.962646 
z"/>
<path fill="#09DCCE" opacity="1.000000" stroke="none" 
	d="
M321.756561,603.994751 
	C321.296417,604.798706 320.481567,605.602478 319.325867,606.253906 
	C319.790619,605.399170 320.596222,604.696960 321.756561,603.994751 
z"/>
<path fill="#09DCCE" opacity="1.000000" stroke="none" 
	d="
M544.059509,390.249390 
	C545.070923,390.034119 546.179443,390.168427 547.485229,390.586639 
	C546.507202,390.780029 545.331909,390.689484 544.059509,390.249390 
z"/>
<path fill="#09DCCE" opacity="1.000000" stroke="none" 
	d="
M706.248535,616.974365 
	C706.007874,616.319519 706.124756,615.622131 706.617676,614.909729 
	C706.864502,615.573730 706.735352,616.252747 706.248535,616.974365 
z"/>
<path fill="#09DCCE" opacity="1.000000" stroke="none" 
	d="
M705.224365,618.942871 
	C705.018555,618.339966 705.143860,617.644348 705.640808,616.922119 
	C705.860107,617.547058 705.707764,618.198608 705.224365,618.942871 
z"/>
<path fill="#09DCCE" opacity="1.000000" stroke="none" 
	d="
M319.174622,383.423584 
	C319.718628,383.207672 320.385071,383.273102 321.076050,383.683899 
	C320.499451,383.921173 319.898254,383.813080 319.174622,383.423584 
z"/>
<path fill="#09DCCE" opacity="1.000000" stroke="none" 
	d="
M704.199097,620.928955 
	C703.996155,620.334839 704.129456,619.658203 704.637085,618.935364 
	C704.852783,619.541565 704.694092,620.193970 704.199097,620.928955 
z"/>
<path fill="#09DCCE" opacity="1.000000" stroke="none" 
	d="
M703.202942,622.920898 
	C703.003113,622.333679 703.125549,621.637024 703.617249,620.905945 
	C703.832703,621.518188 703.678955,622.164795 703.202942,622.920898 
z"/>
<path fill="#09DCCE" opacity="1.000000" stroke="none" 
	d="
M529.292725,386.415955 
	C529.822266,386.175171 530.529419,386.240387 531.408447,386.621094 
	C530.876892,386.865051 530.173645,386.793488 529.292725,386.415955 
z"/>
<path fill="#09DCCE" opacity="1.000000" stroke="none" 
	d="
M318.791443,606.020264 
	C319.020447,606.303467 318.943634,606.625854 318.540253,607.036926 
	C318.304352,606.770203 318.394989,606.414795 318.791443,606.020264 
z"/>
<path fill="#09DCCE" opacity="1.000000" stroke="none" 
	d="
M422.243896,632.859985 
	C422.122864,632.455322 422.294067,632.110107 422.752533,631.839172 
	C422.871887,632.248779 422.704010,632.584106 422.243896,632.859985 
z"/>
<path fill="#09DCCE" opacity="1.000000" stroke="none" 
	d="
M318.041321,735.313782 
	C318.362854,735.145935 318.772583,735.243530 319.146790,735.681763 
	C318.783997,735.874695 318.456757,735.726990 318.041321,735.313782 
z"/>
<path fill="#09DCCE" opacity="1.000000" stroke="none" 
	d="
M319.021515,736.196777 
	C319.428589,736.010193 319.876251,736.133240 320.228088,736.623779 
	C319.775574,736.829590 319.418854,736.667969 319.021515,736.196777 
z"/>
<path fill="#09DCCE" opacity="1.000000" stroke="none" 
	d="
M317.782593,288.038940 
	C318.176697,288.245850 318.284088,288.494293 318.289215,288.744781 
	C318.291107,288.836853 318.051270,288.933899 317.583618,289.151642 
	C317.315521,288.876831 317.385468,288.479034 317.782593,288.038940 
z"/>
</svg>